<?xml version="1.0" encoding="utf-8"?>
<!-- Generator: Adobe Illustrator 21.1.0, SVG Export Plug-In . SVG Version: 6.00 Build 0)  -->
<svg version="1.1" id="图层_1" xmlns="http://www.w3.org/2000/svg" xmlns:xlink="http://www.w3.org/1999/xlink" x="0px" y="0px"
	 viewBox="0 0 841.9 595.3" style="enable-background:new 0 0 841.9 595.3;" xml:space="preserve">
<style type="text/css">
	.st0{fill:#E9B618;}
</style>
<g>
	<path class="st0" d="M412.7,513.6L259.9,374.5c-0.7-0.7-1.3-1.6-1.5-2.5l-13.5-54.8c-1-4.5,4.3-7.7,7.9-4.7l166.3,141.6
		c1.1,0.9,1.7,2.3,1.7,3.7V510C420.8,514.2,415.8,516.4,412.7,513.6z"/>
	<path class="st0" d="M501.6,132.3l-193.2,115c-1.7,1-3.9,0.9-5.4-0.3l-76.1-58.7c-2.8-2.1-2.4-6.5,0.7-8.1L419.2,78.6
		c1.5-0.8,3.3-0.7,4.7,0.1l77.6,45.3C504.7,125.9,504.8,130.5,501.6,132.3z"/>
	<path class="st0" d="M503.7,364l-79.3,67.4c-1.6,1.4-4,1.4-5.6,0L339.5,364c-2.2-1.9-2-5.3,0.4-6.9l79.3-53.6c1.5-1,3.4-1,4.8,0
		l79.3,53.6C505.7,358.8,505.9,362.2,503.7,364z"/>
	<path class="st0" d="M410.3,291.6l-78.8,53.2c-2.7,1.8-6.3,0.1-6.7-3.1l-9.5-76.8c-0.2-1.7,0.6-3.4,2.1-4.2l88.3-53.1
		c2.9-1.7,6.6,0.3,6.6,3.7V288C412.2,289.5,411.5,290.8,410.3,291.6z"/>
	<path class="st0" d="M433.8,292.4L513,345c2.7,1.8,6.3,0.1,6.7-3.1l8.9-76.8c0.2-1.7-0.6-3.4-2.1-4.2l-88.7-52.4
		c-2.9-1.7-6.6,0.4-6.5,3.8l0.6,76.6C431.8,290.2,432.6,291.6,433.8,292.4z"/>
	<path class="st0" d="M300,334.3l-57-46.9c-0.7-0.7-1.3-1.6-1.5-2.5L228,219.5c-1-4.5,4.3-7.7,7.9-4.7l63.5,50.9
		c1.1,0.9,1.7,2.3,1.7,3.7l7.1,61.4C308.1,335,303.1,337.2,300,334.3z"/>
	<path class="st0" d="M577.3,380.1L532,450.5c-2.5,3.7-8.4,1.6-7.9-2.9L543.8,267c0.2-2.1,1.2-4.1,2.9-5.6l65.2-58.6
		c3.1-2.8,8.1,0,7.2,4.2l-40.8,171C578.1,378.8,577.8,379.5,577.3,380.1z"/>
</g>
</svg>
